<svg xmlns="http://www.w3.org/2000/svg" viewBox="0 0 256 256">
  <rect width="256" height="256" rx="56" fill="#1D2433"/>
  <rect width="256" height="256" rx="56" fill="url(#g)"/>
  <defs>
    <radialGradient id="g" cx="0.3" cy="0.25" r="1.1">
      <stop offset="0" stop-color="#2A3450" stop-opacity="0.9"/>
      <stop offset="1" stop-color="#1D2433" stop-opacity="0"/>
    </radialGradient>
  </defs>
  <!-- Two written rules -->
  <path d="M 60 78 L 196 78"  stroke="#F2ECDC" stroke-width="18" stroke-linecap="round"/>
  <path d="M 60 128 L 196 128" stroke="#F2ECDC" stroke-width="18" stroke-linecap="round"/>
  <!-- The unwritten rule: the name itself -->
  <path d="M51.0 167.71910212842067H56.30227150778036V180.0451618672867Q56.30227150778036 182.59300661777857 57.13548560186013 183.68789125380076Q57.968699695939904 184.78277588982294 59.85548202468253 184.78277588982294Q61.756036487211595 184.78277588982294 62.58925058129137 183.68789125380076Q63.42246467537113 182.59300661777857 63.42246467537113 180.0451618672867V167.71910212842067H68.72473618315149V180.0451618672867Q68.72473618315149 184.410928277589 66.53496691110713 186.54560901448758Q64.34519763906277 188.68028975138617 59.85548202468253 188.68028975138617Q55.37953854408872 188.68028975138617 53.18976927204436 186.54560901448758Q51.0 184.410928277589 51.0 180.0451618672867Z M89.19012698980504 178.88830262922554V188.28089787157933H84.23215882668575V186.7521910212842V181.09184403505634Q84.23215882668575 179.0948846360222 84.14263995707387 178.33741727776783Q84.05312108746199 177.5799499195135 83.8327669468789 177.221874441066Q83.54355213736362 176.73984975854052 83.04775532105168 176.47129314970488Q82.55195850473976 176.20273654086927 81.9184403505634 176.20273654086927Q80.37596136648185 176.20273654086927 79.49454480414953 177.39402611339654Q78.61312824181721 178.5853156859238 78.61312824181721 180.6924521552495V188.28089787157933H73.68270434627078V172.85610803076372H78.61312824181721V175.1147379717403Q79.72867107851904 173.76506886066895 80.98193525308531 173.12466463959936Q82.23519942765158 172.48426041852977 83.75013414416026 172.48426041852977Q86.42192809873009 172.48426041852977 87.80602754426756 174.12314433911644Q89.19012698980504 175.7620282597031 89.19012698980504 178.88830262922554Z M92.3852620282597 172.85610803076372H97.1779645859417L99.76712573779288 183.48819531389734L102.37005902343051 172.85610803076372H106.48792702557682L109.07708817742801 183.3780182436058L111.68002146306564 172.85610803076372H116.47272402074763L112.4099445537471 188.28089787157933H107.02504024324807L104.42210695761044 177.6763548560186L101.83294580575925 188.28089787157933H96.44804149526024Z M131.27776784117333 177.05660883562868Q130.6304775532105 176.75362189232695 129.99007333214092 176.6090144875693Q129.34966911107136 176.46440708281168 128.70237882310857 176.46440708281168Q126.8018243605795 176.46440708281168 125.77580039348953 177.68324092291184Q124.74977642639958 178.902074763012 124.74977642639958 181.174476837775V188.28089787157933H119.81935253085315V172.85610803076372H124.74977642639958V175.39018064746915Q125.7000536576641 173.8752459309605 126.9326596315507 173.17975317474514Q128.1652656054373 172.48426041852977 129.8867823287426 172.48426041852977Q130.1346807368986 172.48426041852977 130.42389554641386 172.50491861920943Q130.71311035592916 172.52557681988912 131.26399570738687 172.5944374888213Z M133.72920765516008 172.85610803076372H138.6596315507065V188.28089787157933H133.72920765516008ZM133.72920765516008 166.8514576998748H138.6596315507065V170.872920765516H133.72920765516008Z M148.78214988374174 168.47656948667503V172.85610803076372H153.86406725093903V176.381774280093H148.78214988374174V182.9235378286532Q148.78214988374174 183.99776426399572 149.20908603112144 184.3764979431229Q149.63602217850118 184.75523162225005 150.9030584868539 184.75523162225005H153.4371311035593V188.28089787157933H149.20908603112144Q146.28939366839563 188.28089787157933 145.07055982829547 187.06206403147917Q143.8517259881953 185.843230191379 143.8517259881953 182.9235378286532V176.381774280093H141.40028617420856V172.85610803076372H143.8517259881953V168.47656948667503Z M162.26506886066892 168.47656948667503V172.85610803076372H167.3469862278662V176.381774280093H162.26506886066892V182.9235378286532Q162.26506886066892 183.99776426399572 162.69200500804862 184.3764979431229Q163.11894115542836 184.75523162225005 164.38597746378107 184.75523162225005H166.92005008048648V188.28089787157933H162.69200500804862Q159.7723126453228 188.28089787157933 158.55347880522265 187.06206403147917Q157.3346449651225 185.843230191379 157.3346449651225 182.9235378286532V176.381774280093H154.88320515113574V172.85610803076372H157.3346449651225V168.47656948667503Z M185.76032910033985 180.5271865498122V181.93194419602935H174.2330531210875Q174.41209086031122 183.6672330531211 175.48631729565375 184.53487748166697Q176.56054373099627 185.40252191021284 178.4886424610982 185.40252191021284Q180.04489357896622 185.40252191021284 181.67689143265966 184.94115542836704Q183.3088892863531 184.4797889465212 185.0304060096584 183.54328384904312V187.34439277410124Q183.2813450187802 188.0054551958505 181.532284027902 188.34287247361834Q179.78322303702382 188.68028975138617 178.0341620461456 188.68028975138617Q173.84743337506708 188.68028975138617 171.52682883205154 186.5524950813808Q169.20622428903596 184.42470041137543 169.20622428903596 180.58227508495798Q169.20622428903596 176.80871042747273 171.4855124306922 174.64648542300125Q173.76480057234843 172.48426041852977 177.75871937041677 172.48426041852977Q181.3945626900376 172.48426041852977 183.5774458951887 174.67402969057412Q185.76032910033985 176.8637989626185 185.76032910033985 180.5271865498122ZM180.692183866929 178.88830262922554Q180.692183866929 177.48354498300841 179.87274190663567 176.62278662135577Q179.05329994634235 175.7620282597031 177.73117510284388 175.7620282597031Q176.29887318905386 175.7620282597031 175.4036844929351 176.56769808621Q174.50849579681633 177.37336791271687 174.28814165623325 178.88830262922554Z M205.0 178.88830262922554V188.28089787157933H200.0420318368807V186.7521910212842V181.09184403505634Q200.0420318368807 179.0948846360222 199.95251296726883 178.33741727776783Q199.86299409765695 177.5799499195135 199.64263995707387 177.221874441066Q199.35342514755857 176.73984975854052 198.85762833124664 176.47129314970488Q198.36183151493472 176.20273654086927 197.72831336075836 176.20273654086927Q196.1858343766768 176.20273654086927 195.3044178143445 177.39402611339654Q194.42300125201217 178.5853156859238 194.42300125201217 180.6924521552495V188.28089787157933H189.49257735646574V172.85610803076372H194.42300125201217V175.1147379717403Q195.53854408871402 173.76506886066895 196.7918082632803 173.12466463959936Q198.04507243784656 172.48426041852977 199.56000715435522 172.48426041852977Q202.23180110892505 172.48426041852977 203.61590055446254 174.12314433911644Q205.0 175.7620282597031 205.0 178.88830262922554Z" fill="#F2ECDC"/>
</svg>
