<svg xmlns="http://www.w3.org/2000/svg" viewBox="0 0 1280 640">
  <rect width="1280" height="640" fill="#1D2433"/>
  <rect width="1280" height="640" fill="url(#g)"/>
  <defs>
    <radialGradient id="g" cx="0.25" cy="0.2" r="1.2">
      <stop offset="0" stop-color="#2A3450" stop-opacity="0.9"/>
      <stop offset="1" stop-color="#1D2433" stop-opacity="0"/>
    </radialGradient>
  </defs>
  <g transform="translate(-12.4,11.3) scale(2.4)">
    <path d="M 60 78 L 196 78"  stroke="#F2ECDC" stroke-width="18" stroke-linecap="round"/>
    <path d="M 60 128 L 196 128" stroke="#F2ECDC" stroke-width="18" stroke-linecap="round"/>
    <path d="M51.0 167.71820425684135H56.30227150778036V180.04426399570738Q56.30227150778036 182.59210874619924 57.13548560186013 183.68699338222143Q57.968699695939904 184.78187801824362 59.85548202468253 184.78187801824362Q61.756036487211595 184.78187801824362 62.58925058129137 183.68699338222143Q63.42246467537113 182.59210874619924 63.42246467537113 180.04426399570738V167.71820425684135H68.72473618315149V180.04426399570738Q68.72473618315149 184.41003040600967 66.53496691110713 186.54471114290826Q64.34519763906277 188.67939187980684 59.85548202468253 188.67939187980684Q55.37953854408872 188.67939187980684 53.18976927204436 186.54471114290826Q51.0 184.41003040600967 51.0 180.04426399570738Z M89.19012698980504 178.8874047576462V188.28H84.23215882668575V186.75129314970488V181.090946163477Q84.23215882668575 179.09398676444286 84.14263995707387 178.33651940618853Q84.05312108746199 177.57905204793417 83.8327669468789 177.22097656948668Q83.54355213736362 176.7389518869612 83.04775532105168 176.47039527812558Q82.55195850473976 176.20183866928994 81.9184403505634 176.20183866928994Q80.37596136648185 176.20183866928994 79.49454480414953 177.3931282418172Q78.61312824181721 178.58441781434448 78.61312824181721 180.69155428367017V188.28H73.68270434627078V172.8552101591844H78.61312824181721V175.11384010016099Q79.72867107851904 173.76417098908962 80.98193525308531 173.12376676802003Q82.23519942765158 172.48336254695045 83.75013414416026 172.48336254695045Q86.42192809873009 172.48336254695045 87.80602754426756 174.1222464675371Q89.19012698980504 175.76113038812377 89.19012698980504 178.8874047576462Z M92.3852620282597 172.8552101591844H97.1779645859417L99.76712573779288 183.487297442318L102.37005902343051 172.8552101591844H106.48792702557682L109.07708817742801 183.37712037202647L111.68002146306564 172.8552101591844H116.47272402074763L112.4099445537471 188.28H107.02504024324807L104.42210695761044 177.67545698443928L101.83294580575925 188.28H96.44804149526024Z M131.27776784117333 177.05571096404935Q130.6304775532105 176.75272402074762 129.99007333214092 176.60811661598999Q129.34966911107136 176.46350921123235 128.70237882310857 176.46350921123235Q126.8018243605795 176.46350921123235 125.77580039348953 177.6823430513325Q124.74977642639958 178.90117689143267 124.74977642639958 181.17357896619566V188.28H119.81935253085315V172.8552101591844H124.74977642639958V175.38928277588982Q125.7000536576641 173.87434805938116 126.9326596315507 173.1788553031658Q128.1652656054373 172.48336254695045 129.8867823287426 172.48336254695045Q130.1346807368986 172.48336254695045 130.42389554641386 172.5040207476301Q130.71311035592916 172.52467894830977 131.26399570738687 172.593539617242Z M133.72920765516008 172.8552101591844H138.6596315507065V188.28H133.72920765516008ZM133.72920765516008 166.85055982829547H138.6596315507065V170.87202289393667H133.72920765516008Z M148.78214988374174 168.47567161509568V172.8552101591844H153.86406725093903V176.38087640851367H148.78214988374174V182.92263995707387Q148.78214988374174 183.9968663924164 149.20908603112144 184.37560007154354Q149.63602217850118 184.75433375067072 150.9030584868539 184.75433375067072H153.4371311035593V188.28H149.20908603112144Q146.28939366839563 188.28 145.07055982829547 187.06116615989984Q143.8517259881953 185.84233231979968 143.8517259881953 182.92263995707387V176.38087640851367H141.40028617420856V172.8552101591844H143.8517259881953V168.47567161509568Z M162.26506886066892 168.47567161509568V172.8552101591844H167.3469862278662V176.38087640851367H162.26506886066892V182.92263995707387Q162.26506886066892 183.9968663924164 162.69200500804862 184.37560007154354Q163.11894115542836 184.75433375067072 164.38597746378107 184.75433375067072H166.92005008048648V188.28H162.69200500804862Q159.7723126453228 188.28 158.55347880522265 187.06116615989984Q157.3346449651225 185.84233231979968 157.3346449651225 182.92263995707387V176.38087640851367H154.88320515113574V172.8552101591844H157.3346449651225V168.47567161509568Z M185.76032910033985 180.52628867823287V181.93104632445002H174.2330531210875Q174.41209086031122 183.66633518154177 175.48631729565375 184.53397961008764Q176.56054373099627 185.4016240386335 178.4886424610982 185.4016240386335Q180.04489357896622 185.4016240386335 181.67689143265966 184.94025755678769Q183.3088892863531 184.47889107494188 185.0304060096584 183.5423859774638V187.3434949025219Q183.2813450187802 188.00455732427116 181.532284027902 188.341974602039Q179.78322303702382 188.67939187980684 178.0341620461456 188.67939187980684Q173.84743337506708 188.67939187980684 171.52682883205154 186.55159720980146Q169.20622428903596 184.4238025397961 169.20622428903596 180.58137721337866Q169.20622428903596 176.8078125558934 171.4855124306922 174.64558755142193Q173.76480057234843 172.48336254695045 177.75871937041677 172.48336254695045Q181.3945626900376 172.48336254695045 183.5774458951887 174.67313181899482Q185.76032910033985 176.86290109103916 185.76032910033985 180.52628867823287ZM180.692183866929 178.8874047576462Q180.692183866929 177.4826471114291 179.87274190663567 176.62188874977642Q179.05329994634235 175.76113038812377 177.73117510284388 175.76113038812377Q176.29887318905386 175.76113038812377 175.4036844929351 176.56680021463066Q174.50849579681633 177.37247004113755 174.28814165623325 178.8874047576462Z M205.0 178.8874047576462V188.28H200.0420318368807V186.75129314970488V181.090946163477Q200.0420318368807 179.09398676444286 199.95251296726883 178.33651940618853Q199.86299409765695 177.57905204793417 199.64263995707387 177.22097656948668Q199.35342514755857 176.7389518869612 198.85762833124664 176.47039527812558Q198.36183151493472 176.20183866928994 197.72831336075836 176.20183866928994Q196.1858343766768 176.20183866928994 195.3044178143445 177.3931282418172Q194.42300125201217 178.58441781434448 194.42300125201217 180.69155428367017V188.28H189.49257735646574V172.8552101591844H194.42300125201217V175.11384010016099Q195.53854408871402 173.76417098908962 196.7918082632803 173.12376676802003Q198.04507243784656 172.48336254695045 199.56000715435522 172.48336254695045Q202.23180110892505 172.48336254695045 203.61590055446254 174.1222464675371Q205.0 175.76113038812377 205.0 178.8874047576462Z" fill="#F2ECDC"/>
  </g>
  <path d="M603.92578125 184.6978515625H607.9521484375L615.6337890625 196.0904296875L623.259765625 184.6978515625H627.2861328125L617.4892578125 199.2076171875V212.4H613.72265625V199.2076171875Z M638.845703125 194.0123046875Q636.099609375 194.0123046875 634.50390625 196.15537109375Q632.908203125 198.2984375 632.908203125 202.0279296875Q632.908203125 205.757421875 634.49462890625 207.90048828125Q636.0810546875 210.0435546875 638.845703125 210.0435546875Q641.5732421875 210.0435546875 643.1689453125 207.8912109375Q644.7646484375 205.7388671875 644.7646484375 202.0279296875Q644.7646484375 198.335546875 643.1689453125 196.17392578125Q641.5732421875 194.0123046875 638.845703125 194.0123046875ZM638.845703125 191.1177734375Q643.298828125 191.1177734375 645.8408203125 194.0123046875Q648.3828125 196.9068359375 648.3828125 202.0279296875Q648.3828125 207.13046875 645.8408203125 210.03427734375Q643.298828125 212.9380859375 638.845703125 212.9380859375Q634.3740234375 212.9380859375 631.84130859375 210.03427734375Q629.30859375 207.13046875 629.30859375 202.0279296875Q629.30859375 196.9068359375 631.84130859375 194.0123046875Q634.3740234375 191.1177734375 638.845703125 191.1177734375Z M653.689453125 204.198828125V191.61875H657.103515625V204.0689453125Q657.103515625 207.019140625 658.25390625 208.49423828125Q659.404296875 209.9693359375 661.705078125 209.9693359375Q664.4697265625 209.9693359375 666.07470703125 208.206640625Q667.6796875 206.4439453125 667.6796875 203.4009765625V191.61875H671.09375V212.4H667.6796875V209.20859375Q666.4365234375 211.101171875 664.79443359375 212.01962890625Q663.15234375 212.9380859375 660.9814453125 212.9380859375Q657.400390625 212.9380859375 655.544921875 210.7115234375Q653.689453125 208.4849609375 653.689453125 204.198828125ZM662.2802734375 191.1177734375Z M690.16796875 194.81015625Q689.5927734375 194.476171875 688.91552734375 194.31845703125Q688.23828125 194.1607421875 687.421875 194.1607421875Q684.52734375 194.1607421875 682.97802734375 196.04404296875Q681.4287109375 197.92734375 681.4287109375 201.452734375V212.4H677.99609375V191.61875H681.4287109375V194.847265625Q682.5048828125 192.9546875 684.23046875 192.03623046875Q685.9560546875 191.1177734375 688.423828125 191.1177734375Q688.7763671875 191.1177734375 689.203125 191.16416015625Q689.6298828125 191.210546875 690.1494140625 191.3033203125Z M709.205078125 185.718359375V191.61875H716.2373046875V194.2720703125H709.205078125V205.5533203125Q709.205078125 208.0953125 709.90087890625 208.8189453125Q710.5966796875 209.542578125 712.73046875 209.542578125H716.2373046875V212.4H712.73046875Q708.7783203125 212.4 707.275390625 210.92490234375Q705.7724609375 209.4498046875 705.7724609375 205.5533203125V194.2720703125H703.267578125V191.61875H705.7724609375V185.718359375Z M738.5029296875 201.155859375V202.82578125H722.8056640625Q723.0283203125 206.351171875 724.93017578125 208.19736328125Q726.83203125 210.0435546875 730.2275390625 210.0435546875Q732.1943359375 210.0435546875 734.04052734375 209.5611328125Q735.88671875 209.0787109375 737.705078125 208.1138671875V211.3423828125Q735.8681640625 212.1216796875 733.9384765625 212.5298828125Q732.0087890625 212.9380859375 730.0234375 212.9380859375Q725.05078125 212.9380859375 722.14697265625 210.0435546875Q719.2431640625 207.1490234375 719.2431640625 202.2134765625Q719.2431640625 197.1109375 721.99853515625 194.11435546875Q724.75390625 191.1177734375 729.4296875 191.1177734375Q733.623046875 191.1177734375 736.06298828125 193.81748046875Q738.5029296875 196.5171875 738.5029296875 201.155859375ZM735.0888671875 200.15390625Q735.0517578125 197.3521484375 733.52099609375 195.6822265625Q731.990234375 194.0123046875 729.466796875 194.0123046875Q726.609375 194.0123046875 724.89306640625 195.6265625Q723.1767578125 197.2408203125 722.9169921875 200.1724609375Z M753.55078125 201.9537109375Q749.4130859375 201.9537109375 747.8173828125 202.9Q746.2216796875 203.8462890625 746.2216796875 206.128515625Q746.2216796875 207.946875 747.41845703125 209.01376953125Q748.615234375 210.0806640625 750.6748046875 210.0806640625Q753.513671875 210.0806640625 755.22998046875 208.06748046875Q756.9462890625 206.054296875 756.9462890625 202.714453125V201.9537109375ZM760.3603515625 200.5435546875V212.4H756.9462890625V209.245703125Q755.77734375 211.13828125 754.033203125 212.03818359375Q752.2890625 212.9380859375 749.765625 212.9380859375Q746.57421875 212.9380859375 744.69091796875 211.14755859375Q742.8076171875 209.35703125 742.8076171875 206.351171875Q742.8076171875 202.8443359375 745.15478515625 201.0630859375Q747.501953125 199.2818359375 752.1591796875 199.2818359375H756.9462890625V198.9478515625Q756.9462890625 196.59140625 755.39697265625 195.30185546875Q753.84765625 194.0123046875 751.0458984375 194.0123046875Q749.2646484375 194.0123046875 747.576171875 194.4390625Q745.8876953125 194.8658203125 744.3291015625 195.7193359375V192.5650390625Q746.203125 191.84140625 747.9658203125 191.47958984375Q749.728515625 191.1177734375 751.3984375 191.1177734375Q755.9072265625 191.1177734375 758.1337890625 193.4556640625Q760.3603515625 195.7935546875 760.3603515625 200.5435546875Z M783.572265625 195.6080078125Q784.8525390625 193.3072265625 786.6337890625 192.2125Q788.4150390625 191.1177734375 790.8271484375 191.1177734375Q794.07421875 191.1177734375 795.8369140625 193.39072265625Q797.599609375 195.663671875 797.599609375 199.85703125V212.4H794.1669921875V199.968359375Q794.1669921875 196.9810546875 793.109375 195.5337890625Q792.0517578125 194.0865234375 789.880859375 194.0865234375Q787.2275390625 194.0865234375 785.6875 195.84921875Q784.1474609375 197.6119140625 784.1474609375 200.6548828125V212.4H780.71484375V199.968359375Q780.71484375 196.9625 779.6572265625 195.52451171875Q778.599609375 194.0865234375 776.3916015625 194.0865234375Q773.775390625 194.0865234375 772.2353515625 195.85849609375Q770.6953125 197.63046875 770.6953125 200.6548828125V212.4H767.2626953125V191.61875H770.6953125V194.847265625Q771.8642578125 192.9361328125 773.4970703125 192.026953125Q775.1298828125 191.1177734375 777.375 191.1177734375Q779.638671875 191.1177734375 781.22509765625 192.2681640625Q782.8115234375 193.4185546875 783.572265625 195.6080078125Z M807.6376953125 184.6978515625V194.995703125H804.4833984375V184.6978515625Z M828.103515625 192.2310546875V195.4595703125Q826.65625 194.7173828125 825.09765625 194.3462890625Q823.5390625 193.9751953125 821.869140625 193.9751953125Q819.3271484375 193.9751953125 818.05615234375 194.7544921875Q816.78515625 195.5337890625 816.78515625 197.0923828125Q816.78515625 198.2798828125 817.6943359375 198.95712890625Q818.603515625 199.634375 821.349609375 200.2466796875L822.5185546875 200.5064453125Q826.1552734375 201.2857421875 827.68603515625 202.70517578125Q829.216796875 204.124609375 829.216796875 206.6666015625Q829.216796875 209.5611328125 826.92529296875 211.249609375Q824.6337890625 212.9380859375 820.6259765625 212.9380859375Q818.9560546875 212.9380859375 817.14697265625 212.61337890625Q815.337890625 212.288671875 813.333984375 211.6392578125V208.1138671875Q815.2265625 209.097265625 817.0634765625 209.58896484375Q818.900390625 210.0806640625 820.7001953125 210.0806640625Q823.1123046875 210.0806640625 824.4111328125 209.25498046875Q825.7099609375 208.429296875 825.7099609375 206.9263671875Q825.7099609375 205.534765625 824.77294921875 204.792578125Q823.8359375 204.050390625 820.6630859375 203.3638671875L819.4755859375 203.085546875Q816.302734375 202.417578125 814.892578125 201.03525390625Q813.482421875 199.6529296875 813.482421875 197.2408203125Q813.482421875 194.3091796875 815.560546875 192.7134765625Q817.638671875 191.1177734375 821.4609375 191.1177734375Q823.353515625 191.1177734375 825.0234375 191.39609375Q826.693359375 191.6744140625 828.103515625 192.2310546875Z M846.3798828125 204.198828125V191.61875H849.7939453125V204.0689453125Q849.7939453125 207.019140625 850.9443359375 208.49423828125Q852.0947265625 209.9693359375 854.3955078125 209.9693359375Q857.16015625 209.9693359375 858.76513671875 208.206640625Q860.3701171875 206.4439453125 860.3701171875 203.4009765625V191.61875H863.7841796875V212.4H860.3701171875V209.20859375Q859.126953125 211.101171875 857.48486328125 212.01962890625Q855.8427734375 212.9380859375 853.671875 212.9380859375Q850.0908203125 212.9380859375 848.2353515625 210.7115234375Q846.3798828125 208.4849609375 846.3798828125 204.198828125ZM854.970703125 191.1177734375Z M888.0908203125 199.85703125V212.4H884.6767578125V199.968359375Q884.6767578125 197.0181640625 883.5263671875 195.55234375Q882.3759765625 194.0865234375 880.0751953125 194.0865234375Q877.310546875 194.0865234375 875.71484375 195.84921875Q874.119140625 197.6119140625 874.119140625 200.6548828125V212.4H870.6865234375V191.61875H874.119140625V194.847265625Q875.34375 192.9732421875 877.00439453125 192.0455078125Q878.6650390625 191.1177734375 880.8359375 191.1177734375Q884.4169921875 191.1177734375 886.25390625 193.33505859375Q888.0908203125 195.55234375 888.0908203125 199.85703125Z M892.9150390625 191.61875H896.3291015625L900.5966796875 207.835546875L904.845703125 191.61875H908.8720703125L913.1396484375 207.835546875L917.388671875 191.61875H920.802734375L915.3662109375 212.4H911.33984375L906.8681640625 195.366796875L902.3779296875 212.4H898.3515625Z M938.021484375 194.81015625Q937.4462890625 194.476171875 936.76904296875 194.31845703125Q936.091796875 194.1607421875 935.275390625 194.1607421875Q932.380859375 194.1607421875 930.83154296875 196.04404296875Q929.2822265625 197.92734375 929.2822265625 201.452734375V212.4H925.849609375V191.61875H929.2822265625V194.847265625Q930.3583984375 192.9546875 932.083984375 192.03623046875Q933.8095703125 191.1177734375 936.27734375 191.1177734375Q936.6298828125 191.1177734375 937.056640625 191.16416015625Q937.4833984375 191.210546875 938.0029296875 191.3033203125Z M941.6025390625 191.61875H945.0166015625V212.4H941.6025390625ZM941.6025390625 183.52890625H945.0166015625V187.8521484375H941.6025390625Z M955.537109375 185.718359375V191.61875H962.5693359375V194.2720703125H955.537109375V205.5533203125Q955.537109375 208.0953125 956.23291015625 208.8189453125Q956.9287109375 209.542578125 959.0625 209.542578125H962.5693359375V212.4H959.0625Q955.1103515625 212.4 953.607421875 210.92490234375Q952.1044921875 209.4498046875 952.1044921875 205.5533203125V194.2720703125H949.599609375V191.61875H952.1044921875V185.718359375Z M970.4365234375 185.718359375V191.61875H977.46875V194.2720703125H970.4365234375V205.5533203125Q970.4365234375 208.0953125 971.13232421875 208.8189453125Q971.828125 209.542578125 973.9619140625 209.542578125H977.46875V212.4H973.9619140625Q970.009765625 212.4 968.5068359375 210.92490234375Q967.00390625 209.4498046875 967.00390625 205.5533203125V194.2720703125H964.4990234375V191.61875H967.00390625V185.718359375Z M999.734375 201.155859375V202.82578125H984.037109375Q984.259765625 206.351171875 986.16162109375 208.19736328125Q988.0634765625 210.0435546875 991.458984375 210.0435546875Q993.42578125 210.0435546875 995.27197265625 209.5611328125Q997.1181640625 209.0787109375 998.9365234375 208.1138671875V211.3423828125Q997.099609375 212.1216796875 995.169921875 212.5298828125Q993.240234375 212.9380859375 991.2548828125 212.9380859375Q986.2822265625 212.9380859375 983.37841796875 210.0435546875Q980.474609375 207.1490234375 980.474609375 202.2134765625Q980.474609375 197.1109375 983.22998046875 194.11435546875Q985.9853515625 191.1177734375 990.6611328125 191.1177734375Q994.8544921875 191.1177734375 997.29443359375 193.81748046875Q999.734375 196.5171875 999.734375 201.155859375ZM996.3203125 200.15390625Q996.283203125 197.3521484375 994.75244140625 195.6822265625Q993.2216796875 194.0123046875 990.6982421875 194.0123046875Q987.8408203125 194.0123046875 986.12451171875 195.6265625Q984.408203125 197.2408203125 984.1484375 200.1724609375Z M1022.6123046875 199.85703125V212.4H1019.1982421875V199.968359375Q1019.1982421875 197.0181640625 1018.0478515625 195.55234375Q1016.8974609375 194.0865234375 1014.5966796875 194.0865234375Q1011.83203125 194.0865234375 1010.236328125 195.84921875Q1008.640625 197.6119140625 1008.640625 200.6548828125V212.4H1005.2080078125V191.61875H1008.640625V194.847265625Q1009.865234375 192.9732421875 1011.52587890625 192.0455078125Q1013.1865234375 191.1177734375 1015.357421875 191.1177734375Q1018.9384765625 191.1177734375 1020.775390625 193.33505859375Q1022.6123046875 195.55234375 1022.6123046875 199.85703125Z M1053.54296875 194.81015625Q1052.9677734375 194.476171875 1052.29052734375 194.31845703125Q1051.61328125 194.1607421875 1050.796875 194.1607421875Q1047.90234375 194.1607421875 1046.35302734375 196.04404296875Q1044.8037109375 197.92734375 1044.8037109375 201.452734375V212.4H1041.37109375V191.61875H1044.8037109375V194.847265625Q1045.8798828125 192.9546875 1047.60546875 192.03623046875Q1049.3310546875 191.1177734375 1051.798828125 191.1177734375Q1052.1513671875 191.1177734375 1052.578125 191.16416015625Q1053.0048828125 191.210546875 1053.5244140625 191.3033203125Z M1056.771484375 204.198828125V191.61875H1060.185546875V204.0689453125Q1060.185546875 207.019140625 1061.3359375 208.49423828125Q1062.486328125 209.9693359375 1064.787109375 209.9693359375Q1067.5517578125 209.9693359375 1069.15673828125 208.206640625Q1070.76171875 206.4439453125 1070.76171875 203.4009765625V191.61875H1074.17578125V212.4H1070.76171875V209.20859375Q1069.5185546875 211.101171875 1067.87646484375 212.01962890625Q1066.234375 212.9380859375 1064.0634765625 212.9380859375Q1060.482421875 212.9380859375 1058.626953125 210.7115234375Q1056.771484375 208.4849609375 1056.771484375 204.198828125ZM1065.3623046875 191.1177734375Z M1081.2080078125 183.52890625H1084.6220703125V212.4H1081.2080078125Z M1109.541015625 201.155859375V202.82578125H1093.84375Q1094.06640625 206.351171875 1095.96826171875 208.19736328125Q1097.8701171875 210.0435546875 1101.265625 210.0435546875Q1103.232421875 210.0435546875 1105.07861328125 209.5611328125Q1106.9248046875 209.0787109375 1108.7431640625 208.1138671875V211.3423828125Q1106.90625 212.1216796875 1104.9765625 212.5298828125Q1103.046875 212.9380859375 1101.0615234375 212.9380859375Q1096.0888671875 212.9380859375 1093.18505859375 210.0435546875Q1090.28125 207.1490234375 1090.28125 202.2134765625Q1090.28125 197.1109375 1093.03662109375 194.11435546875Q1095.7919921875 191.1177734375 1100.4677734375 191.1177734375Q1104.6611328125 191.1177734375 1107.10107421875 193.81748046875Q1109.541015625 196.5171875 1109.541015625 201.155859375ZM1106.126953125 200.15390625Q1106.08984375 197.3521484375 1104.55908203125 195.6822265625Q1103.0283203125 194.0123046875 1100.5048828125 194.0123046875Q1097.6474609375 194.0123046875 1095.93115234375 195.6265625Q1094.21484375 197.2408203125 1093.955078125 200.1724609375Z M1128.392578125 192.2310546875V195.4595703125Q1126.9453125 194.7173828125 1125.38671875 194.3462890625Q1123.828125 193.9751953125 1122.158203125 193.9751953125Q1119.6162109375 193.9751953125 1118.34521484375 194.7544921875Q1117.07421875 195.5337890625 1117.07421875 197.0923828125Q1117.07421875 198.2798828125 1117.9833984375 198.95712890625Q1118.892578125 199.634375 1121.638671875 200.2466796875L1122.8076171875 200.5064453125Q1126.4443359375 201.2857421875 1127.97509765625 202.70517578125Q1129.505859375 204.124609375 1129.505859375 206.6666015625Q1129.505859375 209.5611328125 1127.21435546875 211.249609375Q1124.9228515625 212.9380859375 1120.9150390625 212.9380859375Q1119.2451171875 212.9380859375 1117.43603515625 212.61337890625Q1115.626953125 212.288671875 1113.623046875 211.6392578125V208.1138671875Q1115.515625 209.097265625 1117.3525390625 209.58896484375Q1119.189453125 210.0806640625 1120.9892578125 210.0806640625Q1123.4013671875 210.0806640625 1124.7001953125 209.25498046875Q1125.9990234375 208.429296875 1125.9990234375 206.9263671875Q1125.9990234375 205.534765625 1125.06201171875 204.792578125Q1124.125 204.050390625 1120.9521484375 203.3638671875L1119.7646484375 203.085546875Q1116.591796875 202.417578125 1115.181640625 201.03525390625Q1113.771484375 199.6529296875 1113.771484375 197.2408203125Q1113.771484375 194.3091796875 1115.849609375 192.7134765625Q1117.927734375 191.1177734375 1121.75 191.1177734375Q1123.642578125 191.1177734375 1125.3125 191.39609375Q1126.982421875 191.6744140625 1128.392578125 192.2310546875Z M1135.814453125 207.687109375H1139.7294921875V210.878515625L1136.6865234375 216.816015625H1134.29296875L1135.814453125 210.878515625Z" fill="#F2ECDC"/>
  <path d="M610.9580078125 239.71835937499998V245.61874999999998H617.990234375V248.27207031249998H610.9580078125V259.5533203125Q610.9580078125 262.0953125 611.65380859375 262.8189453125Q612.349609375 263.542578125 614.4833984375 263.542578125H617.990234375V266.4H614.4833984375Q610.53125 266.4 609.0283203125 264.92490234375Q607.525390625 263.4498046875 607.525390625 259.5533203125V248.27207031249998H605.0205078125V245.61874999999998H607.525390625V239.71835937499998Z M630.533203125 248.01230468749998Q627.787109375 248.01230468749998 626.19140625 250.15537109374998Q624.595703125 252.29843749999998 624.595703125 256.0279296875Q624.595703125 259.757421875 626.18212890625 261.90048828125Q627.7685546875 264.0435546875 630.533203125 264.0435546875Q633.2607421875 264.0435546875 634.8564453125 261.8912109375Q636.4521484375 259.7388671875 636.4521484375 256.0279296875Q636.4521484375 252.33554687499998 634.8564453125 250.17392578124998Q633.2607421875 248.01230468749998 630.533203125 248.01230468749998ZM630.533203125 245.11777343749998Q634.986328125 245.11777343749998 637.5283203125 248.01230468749998Q640.0703125 250.90683593749998 640.0703125 256.0279296875Q640.0703125 261.13046875 637.5283203125 264.03427734375Q634.986328125 266.9380859375 630.533203125 266.9380859375Q626.0615234375 266.9380859375 623.52880859375 264.03427734375Q620.99609375 261.13046875 620.99609375 256.0279296875Q620.99609375 250.90683593749998 623.52880859375 248.01230468749998Q626.0615234375 245.11777343749998 630.533203125 245.11777343749998Z M645.7294921875 237.52890624999998H649.1435546875V266.4H645.7294921875Z M669.9619140625 248.77304687499998V237.52890624999998H673.3759765625V266.4H669.9619140625V263.2828125Q668.8857421875 265.13828125 667.24365234375 266.03818359375Q665.6015625 266.9380859375 663.30078125 266.9380859375Q659.5341796875 266.9380859375 657.16845703125 263.9322265625Q654.802734375 260.9263671875 654.802734375 256.0279296875Q654.802734375 251.12949218749998 657.16845703125 248.12363281249998Q659.5341796875 245.11777343749998 663.30078125 245.11777343749998Q665.6015625 245.11777343749998 667.24365234375 246.01767578124998Q668.8857421875 246.91757812499998 669.9619140625 248.77304687499998ZM658.328125 256.0279296875Q658.328125 259.79453125 659.87744140625 261.93759765625Q661.4267578125 264.0806640625 664.1357421875 264.0806640625Q666.8447265625 264.0806640625 668.4033203125 261.93759765625Q669.9619140625 259.79453125 669.9619140625 256.0279296875Q669.9619140625 252.26132812499998 668.4033203125 250.11826171874998Q666.8447265625 247.97519531249998 664.1357421875 247.97519531249998Q661.4267578125 247.97519531249998 659.87744140625 250.11826171874998Q658.328125 252.26132812499998 658.328125 256.0279296875Z M695.8642578125 239.71835937499998V245.61874999999998H702.896484375V248.27207031249998H695.8642578125V259.5533203125Q695.8642578125 262.0953125 696.56005859375 262.8189453125Q697.255859375 263.542578125 699.3896484375 263.542578125H702.896484375V266.4H699.3896484375Q695.4375 266.4 693.9345703125 264.92490234375Q692.431640625 263.4498046875 692.431640625 259.5533203125V248.27207031249998H689.9267578125V245.61874999999998H692.431640625V239.71835937499998Z M715.439453125 248.01230468749998Q712.693359375 248.01230468749998 711.09765625 250.15537109374998Q709.501953125 252.29843749999998 709.501953125 256.0279296875Q709.501953125 259.757421875 711.08837890625 261.90048828125Q712.6748046875 264.0435546875 715.439453125 264.0435546875Q718.1669921875 264.0435546875 719.7626953125 261.8912109375Q721.3583984375 259.7388671875 721.3583984375 256.0279296875Q721.3583984375 252.33554687499998 719.7626953125 250.17392578124998Q718.1669921875 248.01230468749998 715.439453125 248.01230468749998ZM715.439453125 245.11777343749998Q719.892578125 245.11777343749998 722.4345703125 248.01230468749998Q724.9765625 250.90683593749998 724.9765625 256.0279296875Q724.9765625 261.13046875 722.4345703125 264.03427734375Q719.892578125 266.9380859375 715.439453125 266.9380859375Q710.9677734375 266.9380859375 708.43505859375 264.03427734375Q705.90234375 261.13046875 705.90234375 256.0279296875Q705.90234375 250.90683593749998 708.43505859375 248.01230468749998Q710.9677734375 245.11777343749998 715.439453125 245.11777343749998Z M751.361328125 268.3296875Q749.9140625 272.040625 748.541015625 273.1724609375Q747.16796875 274.304296875 744.8671875 274.304296875H742.1396484375V271.446875H744.1435546875Q745.5537109375 271.446875 746.3330078125 270.77890625Q747.1123046875 270.1109375 748.05859375 267.624609375L748.6708984375 266.066015625L740.265625 245.61874999999998H743.8837890625L750.3779296875 261.87265625L756.8720703125 245.61874999999998H760.490234375Z M773.255859375 248.01230468749998Q770.509765625 248.01230468749998 768.9140625 250.15537109374998Q767.318359375 252.29843749999998 767.318359375 256.0279296875Q767.318359375 259.757421875 768.90478515625 261.90048828125Q770.4912109375 264.0435546875 773.255859375 264.0435546875Q775.9833984375 264.0435546875 777.5791015625 261.8912109375Q779.1748046875 259.7388671875 779.1748046875 256.0279296875Q779.1748046875 252.33554687499998 777.5791015625 250.17392578124998Q775.9833984375 248.01230468749998 773.255859375 248.01230468749998ZM773.255859375 245.11777343749998Q777.708984375 245.11777343749998 780.2509765625 248.01230468749998Q782.79296875 250.90683593749998 782.79296875 256.0279296875Q782.79296875 261.13046875 780.2509765625 264.03427734375Q777.708984375 266.9380859375 773.255859375 266.9380859375Q768.7841796875 266.9380859375 766.25146484375 264.03427734375Q763.71875 261.13046875 763.71875 256.0279296875Q763.71875 250.90683593749998 766.25146484375 248.01230468749998Q768.7841796875 245.11777343749998 773.255859375 245.11777343749998Z M788.099609375 258.198828125V245.61874999999998H791.513671875V258.0689453125Q791.513671875 261.019140625 792.6640625 262.49423828125Q793.814453125 263.9693359375 796.115234375 263.9693359375Q798.8798828125 263.9693359375 800.48486328125 262.206640625Q802.08984375 260.4439453125 802.08984375 257.4009765625V245.61874999999998H805.50390625V266.4H802.08984375V263.20859375Q800.8466796875 265.101171875 799.20458984375 266.01962890625Q797.5625 266.9380859375 795.3916015625 266.9380859375Q791.810546875 266.9380859375 789.955078125 264.7115234375Q788.099609375 262.4849609375 788.099609375 258.198828125ZM796.6904296875 245.11777343749998Z" fill="#F2ECDC"/>
</svg>
